<svg xmlns:xlink="http://www.w3.org/1999/xlink" xmlns="http://www.w3.org/2000/svg" viewBox="0 0 389.8947368421052 66.7438401630904" preserveAspectRatio="xMidYMid meet" class="css-1q2xkvy" id="dehegbde" width="1000"  height="171.18" ><defs id="SvgjsDefs1168"></defs><g id="SvgjsG1169" featurekey="2ou6gm-0" transform="matrix(1.013730740155628,0,0,1.013730740155628,15.366087803783174,-4.984519874266379)" fill="#61C0BF"><path xmlns="http://www.w3.org/2000/svg" d="M52.1732101,24.6461105c-11.2979431,0.0007286-20.4519291,9.157486-20.4519291,20.451931l-0.0013847,23.0057106  l43.4590988-43.4576416H52.1732101z" fill="#61C0BF"></path><path xmlns="http://www.w3.org/2000/svg" d="M79.1626358,54.089077c-7.9887009-7.9873123-20.9384613-7.9873123-28.9243164-0.0021133L33.9706421,70.3538361  l61.4582138,0.0021133L79.1626358,54.089077z" fill="#61C0BF"></path><path xmlns="http://www.w3.org/2000/svg" d="M17.2932701,56.6258087l11.4744453,11.4737167l0.0013828-43.3488083L17.2932701,36.2265434  C11.6606703,41.8606186,11.6620359,50.9939194,17.2932701,56.6258087z" fill="#61C0BF"></path><path xmlns="http://www.w3.org/2000/svg" d="M4.571147,59.8163185c0,5.7429085,4.6551924,10.398098,10.3959284,10.3973656l11.6963844-0.0006561L4.5725307,48.1221008  L4.571147,59.8163185z" fill="#61C0BF"></path></g><g id="SvgjsG1170" featurekey="kZnDdN-0" transform="matrix(3.214843953781612,0,0,3.214843953781612,130.71406287837448,1.4824980903985292)" fill="#FAE3D9"><path d="M12.52 20 l-1.44 -3.3 l-7.48 0 l-1.44 3.3 l-1.76 0 l6.24 -14 l1.38 0 l6.26 14 l-1.76 0 z M4.22 15.3 l6.24 0 l-3.12 -7.12 z M26.16 20 l-1.8 0 l-3.54 -5.04 l-0.38 0 l-2.9 0 l0 5.04 l-1.66 0 l0 -14 l4.56 0 c3.14 0 4.96 1.92 4.96 4.52 c0 2 -1.08 3.56 -3 4.16 z M17.54 7.5600000000000005 l0 5.92 l2.86 0 c2.02 0 3.34 -1.04 3.34 -2.96 c0 -1.94 -1.32 -2.96 -3.34 -2.96 l-2.86 0 z M39.28 20 l-1.44 -3.3 l-7.48 0 l-1.44 3.3 l-1.76 0 l6.24 -14 l1.38 0 l6.26 14 l-1.76 0 z M30.979999999999997 15.3 l6.24 0 l-3.12 -7.12 z M52.4 6 l1.66 0 l0 14 l-1.28 0 l-8.48 -10.96 l0 10.96 l-1.66 0 l0 -14 l1.28 0 l8.48 10.98 l0 -10.98 z M65.5 6 l0 1.56 l-3.88 0 l0 12.44 l-1.66 0 l0 -12.44 l-3.9 0 l0 -1.56 l9.44 0 z M69.16 6 l0 14 l-1.66 0 l0 -14 l1.66 0 z M75.86 5.76 c2.18 0 3.78 1.44 4.38 2.94 l-1.26 0.68 c-0.64 -1.28 -1.66 -2.12 -3.12 -2.12 c-1.54 0 -2.6 0.88 -2.6 2.1 c0 1.14 0.72 1.86 2.24 2.44 l1.02 0.38 c2.52 0.94 4.1 2.02 4.1 4.24 c0 2.4 -2.3 3.88 -4.68 3.88 s-4.34 -1.44 -4.88 -3.44 l1.34 -0.64 c0.48 1.48 1.74 2.56 3.54 2.56 c1.6 0 2.96 -0.92 2.96 -2.34 c0 -1.6 -1.12 -2.2 -2.78 -2.84 l-1.04 -0.4 c-2.12 -0.8 -3.48 -1.9 -3.48 -3.88 c0 -2.04 1.8 -3.56 4.26 -3.56 z" fill="#FAE3D9"></path></g></svg>